HIERARCHY
ROOT Hips
{
	OFFSET -0.001795 -0.223333 0.028219
	CHANNELS 6 Xposition Yposition Zposition Zrotation Yrotation Xrotation 
	JOINT LeftUpLeg
	{
		OFFSET 0.069520 -0.091406 -0.006815
		CHANNELS 3 Zrotation Yrotation Xrotation
		JOINT LeftLeg
		{
			OFFSET 0.034277 -0.375199 -0.004496
			CHANNELS 3 Zrotation Yrotation Xrotation
			JOINT LeftFoot
			{
				OFFSET -0.013596 -0.397961 -0.043693
				CHANNELS 3 Zrotation Yrotation Xrotation
				JOINT LeftToe
				{
					OFFSET 0.026358 -0.055791 0.119288
					CHANNELS 3 Zrotation Yrotation Xrotation
					End Site
					{
						OFFSET 0.000000 0.000000 0.000000
					}
				}
			}
		}
	}
	JOINT RightUpLeg
	{
		OFFSET -0.067670 -0.090522 -0.004320
		CHANNELS 3 Zrotation Yrotation Xrotation
		JOINT RightLeg
		{
			OFFSET -0.038290 -0.382569 -0.008850
			CHANNELS 3 Zrotation Yrotation Xrotation
			JOINT RightFoot
			{
				OFFSET 0.015774 -0.398415 -0.042312
				CHANNELS 3 Zrotation Yrotation Xrotation
				JOINT RightToe
				{
					OFFSET -0.025372 -0.048144 0.123348
					CHANNELS 3 Zrotation Yrotation Xrotation
					End Site
					{
						OFFSET 0.000000 0.000000 0.000000
					}
				}
			}
		}
	}
	JOINT Spine
	{
		OFFSET -0.002533 0.108963 -0.026696
		CHANNELS 3 Zrotation Yrotation Xrotation
		JOINT Spine1
		{
			OFFSET 0.005487 0.135180 0.001092
			CHANNELS 3 Zrotation Yrotation Xrotation
			JOINT Spine2
			{
				OFFSET 0.001457 0.052922 0.025425
				CHANNELS 3 Zrotation Yrotation Xrotation
				JOINT Neck
				{
					OFFSET -0.002778 0.213870 -0.042857
					CHANNELS 3 Zrotation Yrotation Xrotation
					JOINT Head
					{
						OFFSET 0.005152 0.064970 0.051349
						CHANNELS 3 Zrotation Yrotation Xrotation
						End Site
						{
							OFFSET 0.000000 0.000000 0.000000
						}
					}
				}
				JOINT LeftShoulder
				{
					OFFSET 0.078845 0.121749 -0.034090
					CHANNELS 3 Zrotation Yrotation Xrotation
					JOINT LeftArm
					{
						OFFSET 0.090977 0.030469 -0.008868
						CHANNELS 3 Zrotation Yrotation Xrotation
						JOINT LeftForeArm
						{
							OFFSET 0.259612 -0.012772 -0.027456
							CHANNELS 3 Zrotation Yrotation Xrotation
							JOINT LeftHand
							{
								OFFSET 0.249234 0.008986 -0.001171
								CHANNELS 3 Zrotation Yrotation Xrotation
								End Site
								{
									OFFSET 0.000000 0.000000 0.000000
								}
							}
						}
					}
				}
				JOINT RightShoulder
				{
					OFFSET -0.081759 0.118833 -0.038615
					CHANNELS 3 Zrotation Yrotation Xrotation
					JOINT RightArm
					{
						OFFSET -0.096012 0.032551 -0.009143
						CHANNELS 3 Zrotation Yrotation Xrotation
						JOINT RightForeArm
						{
							OFFSET -0.253742 -0.013329 -0.021401
							CHANNELS 3 Zrotation Yrotation Xrotation
							JOINT RightHand
							{
								OFFSET -0.255298 0.007772 -0.005559
								CHANNELS 3 Zrotation Yrotation Xrotation
								End Site
								{
									OFFSET 0.000000 0.000000 0.000000
								}
							}
						}
					}
				}
			}
		}
	}
}
MOTION
Frames: 11
Frame Time: 0.050000
0.016541 0.940355 -0.052204 -4.170903 10.654165 10.691243 12.493018 -0.689834 -15.740765 -6.599779 0.502671 -0.858439 12.862898 24.965961 19.829168 0.000000 0.000000 0.000000 -1.499123 1.693691 -24.268602 5.042110 -0.721023 5.215399 -4.438827 -12.374139 17.391285 0.000000 0.000000 0.000000 -5.063020 -0.961773 33.986920 6.829322 -0.977961 -21.381455 0.879173 -1.385446 25.056970 -2.331150 3.455565 -30.005566 0.000000 0.000000 0.000000 -11.205160 -13.211282 4.992757 -38.300241 -48.790659 8.853140 15.950700 -52.780979 -5.196438 0.000000 0.000000 0.000000 3.206448 21.856951 8.676837 42.202642 52.428551 13.675456 -25.335989 62.835722 -10.607865 0.000000 0.000000 0.000000 
0.015308 0.940234 -0.053350 -4.268737 10.623025 10.843641 12.734432 -0.679723 -15.932490 -6.586995 0.500893 -0.918681 12.858290 24.956334 20.094466 0.000000 0.000000 0.000000 -1.312083 1.743675 -24.517645 5.001947 -0.710260 5.115886 -4.409273 -12.344929 17.562073 0.000000 0.000000 0.000000 -5.182468 -0.919435 34.025635 6.936055 -1.015890 -21.235318 0.922125 -1.241543 24.868340 -2.170579 3.385521 -29.857528 0.000000 0.000000 0.000000 -11.192002 -13.376841 5.050314 -37.735016 -48.791802 8.651886 15.588723 -52.266416 -4.992844 0.000000 0.000000 0.000000 3.103115 22.147750 8.786595 41.997328 52.945688 13.854129 -23.699857 61.561663 -9.408272 0.000000 0.000000 0.000000 
0.014294 0.940255 -0.054420 -4.412846 10.484950 10.994481 13.012190 -0.660816 -15.986115 -6.596336 0.499798 -1.096629 12.866202 24.955509 20.218755 0.000000 0.000000 0.000000 -1.135325 1.797439 -24.785399 5.143252 -0.728990 4.968081 -4.275084 -12.165620 17.846122 0.000000 0.000000 0.000000 -5.331176 -0.848107 33.969087 6.915175 -1.014198 -21.197614 1.131217 -1.041932 25.029903 -2.018697 3.324646 -29.673256 0.000000 0.000000 0.000000 -11.051492 -13.569649 5.116953 -37.143853 -49.005710 8.478538 14.874968 -51.593067 -4.608417 0.000000 0.000000 0.000000 2.862899 22.403425 8.847836 41.491963 53.467972 13.872518 -22.852493 60.259366 -8.702697 0.000000 0.000000 0.000000 
0.013584 0.940291 -0.055295 -4.490609 10.319978 11.179739 13.048654 -0.655177 -16.113105 -6.538743 0.497964 -1.122739 12.984876 25.087335 20.330768 0.000000 0.000000 0.000000 -0.918934 1.860536 -25.043055 5.177779 -0.730654 4.937317 -4.162302 -12.011802 17.896173 0.000000 0.000000 0.000000 -5.424334 -0.781258 33.757511 7.072432 -1.078110 -20.899287 1.151544 -0.858565 24.842002 -1.881074 3.257494 -29.253123 0.000000 0.000000 0.000000 -11.266395 -13.658206 5.147174 -36.579135 -48.795450 8.204251 13.907668 -51.257200 -4.141703 0.000000 0.000000 0.000000 3.198432 22.647883 9.036167 40.733090 53.462512 13.522373 -21.323654 59.766527 -7.785849 0.000000 0.000000 0.000000 
0.013268 0.940675 -0.055954 -4.671082 10.174149 11.294800 13.254439 -0.638246 -16.167428 -6.485360 0.496198 -1.164338 12.999094 25.087290 20.590080 0.000000 0.000000 0.000000 -0.713905 1.914833 -25.152785 5.234972 -0.732379 4.705442 -4.074344 -11.917116 18.181262 0.000000 0.000000 0.000000 -5.409332 -0.764238 33.682888 6.944466 -1.045497 -20.907632 1.391889 -0.764378 24.874288 -1.668017 3.141571 -28.996128 0.000000 0.000000 0.000000 -11.304099 -13.797537 5.214126 -36.649685 -48.517679 8.129660 12.773641 -50.840668 -3.573825 0.000000 0.000000 0.000000 3.389876 22.744505 9.122117 40.610472 53.351156 13.405889 -19.302012 59.360206 -6.618716 0.000000 0.000000 0.000000 
0.013308 0.940912 -0.056432 -4.830786 9.878896 11.464925 13.361604 -0.620112 -16.244399 -6.378346 0.492958 -1.206914 13.057527 25.130426 20.831970 0.000000 0.000000 0.000000 -0.502311 1.975207 -25.190817 5.389841 -0.748655 4.494972 -4.126399 -12.061422 18.170058 0.000000 0.000000 0.000000 -5.378460 -0.712940 33.236417 6.973104 -1.075821 -20.660896 1.593506 -0.654210 24.940611 -1.665736 3.123786 -28.571272 0.000000 0.000000 0.000000 -11.741309 -13.819616 5.246715 -36.388947 -48.193836 7.920855 11.461616 -50.297375 -2.923335 0.000000 0.000000 0.000000 3.772325 22.878623 9.263214 39.710411 52.836142 12.729940 -17.410260 59.421996 -5.608006 0.000000 0.000000 0.000000 
0.013538 0.941019 -0.056864 -4.884146 9.755125 11.602350 13.391414 -0.614703 -16.353404 -6.278886 0.491857 -1.039721 12.978752 25.038760 20.684058 0.000000 0.000000 0.000000 -0.416594 1.997843 -25.170393 5.363464 -0.733325 4.089514 -4.143483 -12.116522 18.205900 0.000000 0.000000 0.000000 -5.293684 -0.714047 33.062272 7.003633 -1.084895 -20.627066 1.746758 -0.533799 24.997655 -1.385174 2.971774 -28.178654 0.000000 0.000000 0.000000 -11.866850 -13.786446 5.228518 -36.417491 -47.592036 7.721207 10.230074 -50.180619 -2.359402 0.000000 0.000000 0.000000 3.966182 22.748135 9.261299 39.401957 52.283455 12.347891 -15.534297 59.741319 -4.601101 0.000000 0.000000 0.000000 
0.013807 0.941095 -0.057331 -5.021280 9.649888 11.677576 13.582035 -0.599065 -16.365599 -6.216848 0.491765 -0.914277 12.895195 24.930888 20.690241 0.000000 0.000000 0.000000 -0.359833 2.019643 -25.237750 5.550514 -0.761471 4.053186 -4.228249 -12.260223 17.937868 0.000000 0.000000 0.000000 -5.199156 -0.719079 32.794385 7.032702 -1.104473 -20.505823 1.842629 -0.494299 25.125274 -1.222282 2.893488 -28.395086 0.000000 0.000000 0.000000 -11.902102 -13.638811 5.164584 -36.811143 -47.286300 7.740997 8.854697 -49.950884 -1.708080 0.000000 0.000000 0.000000 3.922459 22.818696 9.279263 38.740401 51.770880 11.828709 -14.406430 59.922203 -4.002498 0.000000 0.000000 0.000000 
0.014045 0.941134 -0.057789 -5.027779 9.559707 11.724326 13.574156 -0.595770 -16.340586 -6.110190 0.485779 -0.917299 12.700301 24.696861 20.512546 0.000000 0.000000 0.000000 -0.297500 2.030280 -25.133348 5.481264 -0.741771 3.733032 -4.317060 -12.438318 18.111445 0.000000 0.000000 0.000000 -5.062093 -0.742738 32.602637 6.990000 -1.088170 -20.587574 1.891531 -0.344696 25.210048 -1.138994 2.878711 -28.667261 0.000000 0.000000 0.000000 -12.085395 -13.761587 5.206923 -36.568626 -46.787359 7.483471 7.666000 -50.187614 -1.193335 0.000000 0.000000 0.000000 4.229763 22.860014 9.377315 37.803267 51.026620 11.114813 -13.153696 60.147999 -3.333967 0.000000 0.000000 0.000000 
0.014266 0.941382 -0.058231 -5.069539 9.586743 11.765220 13.626865 -0.595295 -16.301968 -6.112868 0.486359 -0.875921 12.459937 24.411166 20.362492 0.000000 0.000000 0.000000 -0.373701 2.017169 -25.161661 5.523569 -0.751242 3.845696 -4.352841 -12.486722 17.998848 0.000000 0.000000 0.000000 -4.942861 -0.794977 32.756829 6.906902 -1.042387 -20.884987 2.025471 -0.161992 25.106696 -0.797013 2.734231 -28.829231 0.000000 0.000000 0.000000 -12.475292 -13.831787 5.212757 -36.443918 -46.507461 7.364189 6.800252 -50.288649 -0.818406 0.000000 0.000000 0.000000 4.162650 22.905911 9.403786 36.858050 50.505007 10.547820 -12.539142 59.604302 -2.975690 0.000000 0.000000 0.000000 
0.014467 0.941837 -0.058556 -5.095775 9.484572 11.644618 13.645880 -0.587633 -16.059061 -6.031883 0.479427 -1.027355 12.268431 24.165577 20.280838 0.000000 0.000000 0.000000 -0.262741 2.026972 -24.871791 5.369718 -0.723377 3.770924 -4.311711 -12.417828 17.804825 0.000000 0.000000 0.000000 -4.823793 -0.827624 32.788924 6.805607 -1.007457 -21.011588 2.123234 -0.065980 25.110018 -0.837538 2.742890 -28.349338 0.000000 0.000000 0.000000 -13.225882 -14.060152 5.333565 -35.875845 -46.360835 7.141028 6.375240 -50.328775 -0.633101 0.000000 0.000000 0.000000 4.507943 23.175706 9.598318 35.149172 50.041952 9.645557 -11.776596 58.869675 -2.587504 0.000000 0.000000 0.000000 
